<svg xmlns="http://www.w3.org/2000/svg" viewBox="0 0 63.3921 65.3955"><title>bell_10</title><g data-name="Forma 1" style="isolation:isolate" fill="#b9c1cc"><text transform="matrix(1.0068 0 0 1 37.351 20.207)" font-size="23.773" font-family="Geometria">10</text><path d="M43.677 53.633c-4.087-3.714-7.869-8.955-7.869-22.041 0-7.58-5.865-13.745-13.075-13.745S9.655 24.012 9.655 31.592c0 13.097-3.78 18.334-7.87 22.046A5.564 5.564 0 0 0 0 57.739a1.528 1.528 0 0 0 1.487 1.565h14.116a7.394 7.394 0 0 0 7.129 6.092 7.393 7.393 0 0 0 7.128-6.092h14.116a1.528 1.528 0 0 0 1.488-1.565 5.535 5.535 0 0 0-1.787-4.105zm-20.945 8.635a4.33 4.33 0 0 1-4.042-2.964h8.084a4.33 4.33 0 0 1-4.042 2.964zM3.56 56.176A2.4 2.4 0 0 1 3.733 56c6.236-5.659 8.897-12.959 8.897-24.408a10.382 10.382 0 0 1 10.102-10.618 10.38 10.38 0 0 1 10.101 10.618c0 11.439 2.661 18.738 8.9 24.409a2.274 2.274 0 0 1 .173.175H3.561z" fill-rule="evenodd" data-name="Forma 1"/></g></svg>