<svg xmlns="http://www.w3.org/2000/svg" viewBox="0 0 5.038 5.0419"><title>button_animation</title><path d="M3.486.34a1.55 1.55 0 0 0-.758.196A1.554 1.554 0 0 0 0 1.54a2.544 2.544 0 0 0 .432 1.317 1.524 1.524 0 0 0 .943.718v1.291a.177.177 0 0 0 .355 0v-1.29a1.28 1.28 0 0 0 .648-.36 1.51 1.51 0 0 0 .93.7v.95a.177.177 0 0 0 .355 0v-.951a1.525 1.525 0 0 0 .943-.718 2.544 2.544 0 0 0 .432-1.317A1.548 1.548 0 0 0 3.486.34zm-1.934 2.9c-.65 0-1.197-1.044-1.197-1.7a1.198 1.198 0 0 1 2.395 0c0 .656-.548 1.7-1.198 1.7zm1.934.34a1.137 1.137 0 0 1-.868-.645l.055-.078a2.545 2.545 0 0 0 .432-1.317 1.52 1.52 0 0 0-.176-.712A1.199 1.199 0 0 1 4.683 1.88c0 .656-.548 1.7-1.197 1.7z" fill="#fff" fill-rule="evenodd" data-name="Forma 1" style="isolation:isolate"/></svg>