<svg xmlns="http://www.w3.org/2000/svg" viewBox="0 0 39.9999 39.9999"><title>icon_news</title><g data-name="Forma 1" style="isolation:isolate" fill="#193256"><path d="M20 2A18 18 0 1 1 2 20 18.02 18.02 0 0 1 20 2m0-2a20 20 0 1 0 20 20A20 20 0 0 0 20 0z" data-name="Эллипс 8"/><path d="M29.298 15.08h-2.456V11.7a.702.702 0 0 0-.702-.7H10.702a.702.702 0 0 0-.702.699v14.839a.66.66 0 0 0 .012.151c.035.14.771 3.311 3.438 3.311h14.012a.688.688 0 0 0 .304-.07A3.968 3.968 0 0 0 30 26.69V15.78a.703.703 0 0 0-.702-.7zm-.701 11.61a2.457 2.457 0 0 1-1.322 1.911H13.45c-1.38 0-1.942-1.783-2.047-2.156V12.4H25.44v13.17a.702.702 0 0 0 1.403 0v-9.091h1.755V26.69zM14.21 19.859h3.275a.702.702 0 0 0 .702-.699v-3.73a.703.703 0 0 0-.702-.7H14.21a.703.703 0 0 0-.702.7v3.73a.703.703 0 0 0 .702.699zm.702-3.73h1.871v2.331h-1.87v-2.331zm8.187 8.858h-9.123a.7.7 0 1 0 0 1.4H23.1a.7.7 0 1 0 0-1.4zm-9.006-1.981h8.889a.7.7 0 1 0 0-1.399h-8.888a.7.7 0 1 0 0 1.4zm9.006-8.16h-2.69a.7.7 0 1 0 0 1.399h2.69a.7.7 0 1 0 0-1.399zm0 3.38h-2.69a.7.7 0 1 0 0 1.399h2.69a.7.7 0 1 0 0-1.398z" fill-rule="evenodd" data-name="Forma 1"/></g></svg>