<svg xmlns="http://www.w3.org/2000/svg" viewBox="0 0 9.6 9.6015"><title>icon_around</title><path d="M2.884.853a4.372 4.372 0 0 1 5.202 1.02l-1.368-.224-.06.41 2.08.327L8.84.259 8.433.24l-.067 1.354A4.793 4.793 0 0 0 .191 6.127l.388-.102A4.368 4.368 0 0 1 2.884.853zm6.524 2.636l-.387.102a4.392 4.392 0 0 1-7.495 4.15l1.375.204.061-.388L.864 7.23l-.08 2.105.387.02.067-1.353a4.76 4.76 0 0 0 3.562 1.6 5.21 5.21 0 0 0 2.12-.47 4.791 4.791 0 0 0 2.489-5.643zM3.067 5.833v1.104h3.466V5.833a1.237 1.237 0 0 0-1.244-1.246h-.98a1.235 1.235 0 0 0-1.242 1.246zm.407.02a.841.841 0 0 1 .837-.837h.98a.842.842 0 0 1 .837.839v.694H3.474v-.696zM5.8 3.208a1 1 0 1 0-1 1.002 1.001 1.001 0 0 0 1-1.002zm-1.59 0a.592.592 0 1 1 .59.592.591.591 0 0 1-.592-.592z" fill="#253558" fill-rule="evenodd" data-name="Forma 1" style="isolation:isolate"/></svg>