<svg xmlns="http://www.w3.org/2000/svg" viewBox="0 0 51.3601 51.3602"><title>icon_preferences</title><path d="M27.221 25.034V1.444a1.487 1.487 0 0 0-2.972 0v23.59a7.29 7.29 0 0 0 0 14.37v10.503a1.487 1.487 0 0 0 2.972 0V39.405a7.29 7.29 0 0 0 0-14.37zm-1.486 11.623a4.44 4.44 0 1 1 4.568-4.438 4.508 4.508 0 0 1-4.568 4.438zM9.026 12.928V1.444a1.487 1.487 0 0 0-2.972 0v11.484a7.292 7.292 0 0 0 0 14.373v22.606a1.487 1.487 0 0 0 2.972 0V27.289a7.285 7.285 0 0 0 0-14.36zM7.54 24.552a4.44 4.44 0 1 1 0-8.876 4.44 4.44 0 1 1 0 8.876zm37.766-11.624V1.444a1.487 1.487 0 0 0-2.972 0v11.484a7.292 7.292 0 0 0 0 14.373v22.615a1.487 1.487 0 0 0 2.972 0V27.29a7.285 7.285 0 0 0 0-14.36zM43.82 24.552a4.44 4.44 0 1 1 4.568-4.437 4.507 4.507 0 0 1-4.568 4.437z" fill="#474747" fill-rule="evenodd" data-name="Shape 1" style="isolation:isolate"/></svg>