<svg xmlns="http://www.w3.org/2000/svg" viewBox="0 0 39.9999 39.9999"><title>icon_widgets</title><g data-name="Forma 1" style="isolation:isolate" fill="#193256"><path d="M20 2A18 18 0 1 1 2 20 18.02 18.02 0 0 1 20 2m0-2a20 20 0 1 0 20 20A20 20 0 0 0 20 0z" data-name="Эллипс 3"/><path d="M20.444 17.413a2.205 2.205 0 1 0-2.176-2.205 2.193 2.193 0 0 0 2.176 2.205zm-5.271 0a2.205 2.205 0 1 0-2.176-2.205 2.193 2.193 0 0 0 2.176 2.205zm10.654 0a2.205 2.205 0 1 0-2.176-2.205 2.193 2.193 0 0 0 2.176 2.205zm-5.383.89a2.205 2.205 0 1 0 2.176 2.205 2.193 2.193 0 0 0-2.176-2.205zm-5.271 0a2.205 2.205 0 1 0 2.176 2.205 2.193 2.193 0 0 0-2.176-2.205zm10.654 0a2.205 2.205 0 1 0 2.176 2.205 2.193 2.193 0 0 0-2.176-2.205zm-5.383 5.284a2.205 2.205 0 1 0 2.176 2.205 2.193 2.193 0 0 0-2.176-2.205zm-5.271 0a2.205 2.205 0 1 0 2.176 2.205 2.193 2.193 0 0 0-2.176-2.205zm10.654 0a2.205 2.205 0 1 0 2.176 2.205 2.193 2.193 0 0 0-2.176-2.205z" fill-rule="evenodd" data-name="Forma 1"/></g></svg>