<svg xmlns="http://www.w3.org/2000/svg" viewBox="0 0 39.9999 39.9999"><title>icon_birthday</title><g data-name="Forma 1" style="isolation:isolate" fill="#193256"><path d="M20 2A18 18 0 1 1 2 20 18.02 18.02 0 0 1 20 2m0-2a20 20 0 1 0 20 20A20 20 0 0 0 20 0z" data-name="Эллипс 1"/><path d="M27.278 16.284h-1.883a2.298 2.298 0 0 0 1.111-1.925A2.502 2.502 0 0 0 23.886 12c-1.225 0-2.676 2.13-3.487 3.508-.81-1.377-2.261-3.508-3.487-3.508a2.502 2.502 0 0 0-2.62 2.358 2.297 2.297 0 0 0 1.112 1.925h-1.882a1.534 1.534 0 0 0-1.521 1.543v2.447a1.545 1.545 0 0 0 .849 1.382v5.599a1.534 1.534 0 0 0 1.52 1.543h12.17a1.534 1.534 0 0 0 1.522-1.543v-5.661a1.546 1.546 0 0 0 .737-1.32v-2.447a1.534 1.534 0 0 0-1.521-1.543zm-10.385-2.879a5.794 5.794 0 0 1 1.731 1.907h-1.711a1.136 1.136 0 0 1-1.234-.953 1.132 1.132 0 0 1 1.214-.954zm-3.371 7.006a.136.136 0 0 1-.135-.137v-2.447a.136.136 0 0 1 .135-.137h6.184v2.72h-6.184zm6.185 6.981H14.37a.136.136 0 0 1-.135-.137v-5.438h5.47v5.575zm4.18-13.985a1.136 1.136 0 0 1 1.234.952 1.136 1.136 0 0 1-1.234.952h-1.712a5.944 5.944 0 0 1 1.712-1.904zm2.79 13.848a.137.137 0 0 1-.136.137h-5.448v-5.575h5.584v5.438zm.736-6.981a.136.136 0 0 1-.135.136h-6.185v-2.72h6.185a.136.136 0 0 1 .135.137v2.446z" fill-rule="evenodd" data-name="Forma 1"/></g></svg>