<svg xmlns="http://www.w3.org/2000/svg" viewBox="0 0 39.9999 39.9999"><title>icon_dialog</title><g data-name="Shape 1" style="isolation:isolate" fill="#193256"><path d="M20 2A18 18 0 1 1 2 20 18.02 18.02 0 0 1 20 2m0-2a20 20 0 1 0 20 20A20 20 0 0 0 20 0z" data-name="Эллипс 1"/><path d="M27.843 22.498V12.83a2.402 2.402 0 0 0-2.363-2.43H9.563A2.401 2.401 0 0 0 7.2 12.83v9.668a2.402 2.402 0 0 0 2.363 2.43h.675v2.914a.96.96 0 0 0 .951.973.944.944 0 0 0 .717-.339l2.985-3.554h10.594a2.393 2.393 0 0 0 2.358-2.424zm-13.25 1.113a.635.635 0 0 0-.486.226l-2.593 3.08v-2.65a.652.652 0 0 0-.644-.662H9.563a1.1 1.1 0 0 1-1.082-1.113V12.83a1.1 1.1 0 0 1 1.082-1.113H25.48a1.1 1.1 0 0 1 1.082 1.113v9.668a1.1 1.1 0 0 1-1.082 1.113H14.594zm15.843-9.233a.659.659 0 0 0 0 1.318 1.1 1.1 0 0 1 1.083 1.113v9.668a1.1 1.1 0 0 1-1.082 1.113h-1.313a.652.652 0 0 0-.643.661v2.651l-2.594-3.081a.626.626 0 0 0-.486-.226H15.78a.661.661 0 0 0 0 1.323h9.328l2.99 3.543a.91.91 0 0 0 1.047.274.964.964 0 0 0 .617-.914v-2.914h.674a2.401 2.401 0 0 0 2.363-2.43v-9.668a2.402 2.402 0 0 0-2.362-2.43zM17.521 17.11a.785.785 0 1 0 .764.785.774.774 0 0 0-.764-.785zm2.557 0a.785.785 0 1 0 .764.785.774.774 0 0 0-.764-.785zm-5.113 0a.785.785 0 1 0 .763.785.774.774 0 0 0-.763-.785z" fill-rule="evenodd" data-name="Shape 1"/></g></svg>