<svg xmlns="http://www.w3.org/2000/svg" viewBox="0 0 40.0003 40.0003"><title>icon_+</title><g data-name="Фигура 1 копия 3" style="isolation:isolate" fill="#878787"><path d="M20.01 2a18 18 0 0 1 13.04 30.398 17.882 17.882 0 0 1-12.589 5.596 18.56 18.56 0 0 1-.471.006A18 18 0 0 1 6.95 7.603a17.882 17.882 0 0 1 12.588-5.597Q19.775 2 20.01 2m0-2q-.26 0-.522.007A20 20 0 0 0 19.99 40c.174 0 .347-.002.523-.007A20 20 0 0 0 20.009 0z" data-name="Эллипс 2 копия 5"/><path fill-rule="evenodd" d="M27.218 20.615l-.041-1.599-6.398.164-.164-6.398-1.599.041.164 6.398-6.398.164.041 1.6 6.398-.164.164 6.397 1.599-.041-.164-6.397 6.398-.165z" data-name="Фигура 1 копия 3"/></g></svg>