<svg xmlns="http://www.w3.org/2000/svg" viewBox="0 0 39.9999 40"><title>icon_man</title><g data-name="Forma 1" style="isolation:isolate" fill="#193256"><path d="M20 2A18 18 0 1 1 2 20 18.02 18.02 0 0 1 20 2m0-2a20 20 0 1 0 20 20A20 20 0 0 0 20 0z" data-name="Эллипс 7"/><path d="M22.966 21.67a6.08 6.08 0 0 0 2.926-5.237 6.16 6.16 0 0 0-12.321 0 6.08 6.08 0 0 0 2.926 5.237 9.524 9.524 0 0 0-6.007 7.085h1.54a7.893 7.893 0 0 1 15.402 0h1.54a9.274 9.274 0 0 0-6.006-7.085zm-7.855-5.237a4.62 4.62 0 1 1 4.62 4.62 4.634 4.634 0 0 1-4.62-4.62z" fill-rule="evenodd" data-name="Forma 1"/></g></svg>