<svg xmlns="http://www.w3.org/2000/svg" viewBox="0 0 4.5607 4.8"><title>search</title><path d="M4.513 4.51L3.168 3.134a1.885 1.885 0 0 0 .488-1.267A1.85 1.85 0 0 0 1.828 0 1.85 1.85 0 0 0 0 1.867a1.85 1.85 0 0 0 1.828 1.866 1.794 1.794 0 0 0 1.094-.372l1.36 1.388a.162.162 0 0 0 .115.051.157.157 0 0 0 .116-.05.174.174 0 0 0 0-.24zM1.828 3.395A1.515 1.515 0 0 1 .33 1.867 1.514 1.514 0 0 1 1.828.337a1.514 1.514 0 0 1 1.497 1.53 1.513 1.513 0 0 1-1.497 1.528z" fill="#b9c1cc" fill-rule="evenodd" data-name="Forma 1" style="isolation:isolate"/></svg>