<svg xmlns="http://www.w3.org/2000/svg" viewBox="0 0 3.54 2.2401"><title>views</title><path d="M1.77.56a.576.576 0 0 0-.59.56.576.576 0 0 0 .59.56.576.576 0 0 0 .59-.56.576.576 0 0 0-.59-.56zm0 .98a.432.432 0 0 1-.443-.42A.432.432 0 0 1 1.77.7a.432.432 0 0 1 .443.42.432.432 0 0 1-.443.42zm0-1.54A2.739 2.739 0 0 0 0 1.12a2.737 2.737 0 0 0 1.77 1.12 2.739 2.739 0 0 0 1.77-1.12A2.737 2.737 0 0 0 1.77 0zm0 2.1a2.448 2.448 0 0 1-1.586-.98A2.45 2.45 0 0 1 1.77.14a2.448 2.448 0 0 1 1.586.98 2.45 2.45 0 0 1-1.586.98z" fill="#868686" fill-rule="evenodd" data-name="Forma 1 копия 6" style="isolation:isolate"/></svg>